<svg data-v-423bf9ae="" xmlns="http://www.w3.org/2000/svg" viewBox="0 0 270 90" class="iconLeft"><!----><!----><!----><g data-v-423bf9ae="" id="4b9dc4e5-20ac-4d0f-8942-877c812c396d" fill="white" transform="matrix(5.714285714285714,0,0,5.714285714285714,104.85714266129902,-8.885713781629292)"><path d="M7.12 11.36L7.12 11.36L8.31 11.54Q8.28 12.20 8.20 12.66Q8.11 13.12 7.95 13.48Q7.79 13.84 7.56 14.06Q7.33 14.29 6.96 14.43Q6.60 14.57 6.14 14.63Q5.69 14.68 5.04 14.68L5.04 14.68Q4.43 14.68 3.94 14.65Q3.46 14.62 3.06 14.52Q2.66 14.41 2.36 14.31Q2.06 14.21 1.84 13.98Q1.61 13.75 1.45 13.56Q1.30 13.38 1.19 13.00Q1.09 12.62 1.03 12.33Q0.98 12.04 0.95 11.50Q0.92 10.95 0.91 10.54Q0.90 10.13 0.90 9.41L0.90 9.41Q0.90 8.64 0.91 8.18Q0.92 7.71 0.95 7.16Q0.98 6.62 1.04 6.32Q1.09 6.02 1.20 5.66Q1.31 5.30 1.46 5.12Q1.60 4.95 1.83 4.74Q2.06 4.54 2.34 4.46Q2.62 4.38 3.01 4.30Q3.41 4.22 3.87 4.20Q4.32 4.18 4.92 4.18L4.92 4.18Q5.54 4.18 5.98 4.22Q6.42 4.27 6.80 4.39Q7.18 4.52 7.43 4.73Q7.68 4.94 7.86 5.27Q8.05 5.61 8.16 6.06Q8.26 6.51 8.31 7.15L8.31 7.15L7.11 7.38Q7.08 7.03 7.05 6.80Q7.02 6.57 6.97 6.34Q6.92 6.12 6.89 5.98Q6.86 5.84 6.76 5.70Q6.67 5.57 6.61 5.50Q6.55 5.43 6.39 5.37Q6.23 5.31 6.13 5.29Q6.02 5.26 5.78 5.24Q5.54 5.22 5.36 5.22Q5.18 5.22 4.84 5.22L4.84 5.22Q4.36 5.22 4.06 5.23Q3.75 5.24 3.45 5.28Q3.14 5.32 2.97 5.39Q2.80 5.46 2.65 5.58Q2.50 5.70 2.43 5.88Q2.37 6.05 2.35 6.30L2.35 6.30Q2.29 8.10 2.29 9.98L2.29 9.98Q2.29 11.29 2.35 12.54L2.35 12.54Q2.39 12.93 2.57 13.15Q2.76 13.37 3.31 13.50Q3.85 13.63 4.85 13.63L4.85 13.63Q5.38 13.63 5.74 13.60Q6.10 13.57 6.35 13.46Q6.60 13.34 6.73 13.25Q6.86 13.16 6.94 12.89Q7.01 12.63 7.04 12.44Q7.06 12.26 7.09 11.83L7.09 11.83Q7.10 11.73 7.10 11.68Q7.10 11.62 7.11 11.53Q7.12 11.44 7.12 11.36ZM17.24 7.14L17.24 7.14Q17.24 8.44 16.75 9.07Q16.26 9.71 15.37 9.85L15.37 9.85Q16.69 10.12 16.93 11.52L16.93 11.52L17.46 14.52L15.98 14.52Q15.92 14.21 15.85 13.61Q15.78 13.01 15.72 12.60Q15.65 12.18 15.55 11.72Q15.45 11.25 15.28 10.94Q15.11 10.62 14.88 10.47L14.88 10.47Q14.51 10.32 13.67 10.32L13.67 10.32L11.56 10.32L11.56 14.52L10.18 14.52L10.18 4.33L13.29 4.33Q13.78 4.33 14.13 4.34Q14.47 4.35 14.85 4.39Q15.24 4.42 15.50 4.48Q15.76 4.55 16.03 4.65Q16.30 4.75 16.47 4.90Q16.65 5.05 16.80 5.26Q16.96 5.47 17.05 5.74Q17.14 6.01 17.19 6.36Q17.24 6.71 17.24 7.14ZM15.87 7.68L15.87 7.68L15.87 6.73Q15.87 6.47 15.86 6.32Q15.85 6.17 15.81 6.01Q15.77 5.84 15.69 5.75Q15.60 5.67 15.46 5.58Q15.32 5.50 15.10 5.46Q14.88 5.43 14.58 5.40Q14.28 5.38 13.86 5.38L13.86 5.38L11.56 5.38L11.56 9.23L13.95 9.23Q14.47 9.23 14.81 9.17Q15.16 9.12 15.37 9.02Q15.59 8.92 15.70 8.72Q15.80 8.52 15.84 8.29Q15.87 8.06 15.87 7.68ZM20.15 14.52L18.87 14.52L19.38 4.27L20.88 4.27L23.82 12.29L26.71 4.27L28.21 4.27L28.75 14.52L27.40 14.52L27.04 6.31L24.21 14.52L23.42 14.52L20.45 6.37L20.15 14.52Z"></path></g><!----><g data-v-423bf9ae="" id="cc5408e2-1f19-4d16-9a0c-579e2fd76e2d" transform="matrix(2.8125,0,0,2.8125,0,0)" stroke="none" fill="white"><path d="M16 32c8.837 0 16-7.163 16-16S24.837 0 16 0 0 7.163 0 16s7.163 16 16 16zM14.817 6.421h2v8.886h8.887v2H14.817V6.421zm-5.959.437h2v14.283h14.283v2H8.858V6.858z"></path></g><!----></svg>